<svg width="512" height="512" viewBox="0 0 512 512" fill="none" xmlns="http://www.w3.org/2000/svg">
  <rect width="512" height="512" rx="132" fill="#FFFFFF"/>
  <rect x="64" y="64" width="160" height="160" rx="36" fill="#2563EB"/>
  <rect x="96" y="96" width="96" height="96" rx="22" fill="#FFFFFF"/>
  <rect x="118" y="118" width="52" height="52" rx="14" fill="#2563EB"/>
  <rect x="288" y="64" width="160" height="160" rx="36" fill="#2563EB"/>
  <rect x="320" y="96" width="96" height="96" rx="22" fill="#FFFFFF"/>
  <rect x="342" y="118" width="52" height="52" rx="14" fill="#2563EB"/>
  <rect x="64" y="288" width="160" height="160" rx="36" fill="#2563EB"/>
  <rect x="96" y="320" width="96" height="96" rx="22" fill="#FFFFFF"/>
  <rect x="118" y="342" width="52" height="52" rx="14" fill="#2563EB"/>
  <rect x="256" y="256" width="32" height="32" rx="10" fill="#2563EB"/>
  <rect x="288" y="256" width="32" height="96" rx="10" fill="#2563EB"/>
  <rect x="320" y="288" width="32" height="32" rx="10" fill="#2563EB"/>
  <rect x="352" y="256" width="32" height="32" rx="10" fill="#2563EB"/>
  <rect x="352" y="320" width="32" height="32" rx="10" fill="#2563EB"/>
  <rect x="384" y="352" width="32" height="32" rx="10" fill="#2563EB"/>
  <rect x="256" y="352" width="32" height="32" rx="10" fill="#60A5FA"/>
  <rect x="224" y="320" width="32" height="32" rx="10" fill="#60A5FA"/>
  <rect x="224" y="384" width="32" height="32" rx="10" fill="#60A5FA"/>
  <rect x="288" y="384" width="96" height="32" rx="10" fill="#1D4ED8"/>
  <circle cx="256" cy="256" r="18" fill="#60A5FA"/>
</svg>
